<?xml version="1.0" encoding="UTF-8"?>
<svg width="140px" height="140px" viewBox="0 0 140 140" version="1.1" xmlns="http://www.w3.org/2000/svg" xmlns:xlink="http://www.w3.org/1999/xlink">
    <!-- Generator: Sketch 51.3 (57544) - http://www.bohemiancoding.com/sketch -->
    <title>O</title>
    <desc>Created with Sketch.</desc>
    <defs></defs>
    <g id="Page-1" stroke="none" stroke-width="1" fill="none" fill-rule="evenodd">
        <g id="selection" transform="translate(-104.000000, -500.000000)">
            <g id="O" transform="translate(104.000000, 500.000000)">
                <circle id="Oval-2" fill="#FFFFFF" cx="70" cy="70" r="70"></circle>
                <circle id="Oval-4" fill="#000000" cx="54.5132743" cy="37.1681416" r="7.43362832"></circle>
                <text id="2" font-family="AvenirNext-Bold, Avenir Next" font-size="30" font-weight="bold" letter-spacing="-0.0266666673" fill="#000000">
                    <tspan x="81.7699115" y="98.8685021">2</tspan>
                </text>
                <g id="Group-2" transform="translate(35.929204, 62.673812)" stroke="#000000" stroke-width="6">
                    <circle id="Oval-3" cx="21.0619469" cy="21.0619469" r="21.0619469"></circle>
                </g>
                <circle id="Oval-3" stroke="#000000" stroke-width="2" cx="78.6725664" cy="48.4260242" r="11.7699115"></circle>
                <path d="M52.3418916,62.9792141 L52.3418916,62.9792141 C52.8822016,63.0818707 53.2369898,63.6030981 53.1343332,64.1434081 C53.1104708,64.2690023 53.0626485,64.3888269 52.9934778,64.4963384 C51.4668943,66.8691409 50.5102798,68.5012643 50.1236556,69.3927223 C49.4476428,70.9514375 48.8952025,73.5170144 48.9359309,74.5832325 C48.9766592,75.6494507 49.1597846,77.2870768 49.6594778,79.0612659 C49.8978589,79.9076519 50.8005273,81.5480066 52.3674828,83.9823299 L52.3674805,83.9823314 C52.6961301,84.4929007 52.5486551,85.173222 52.0380858,85.5018716 C51.9992659,85.5268597 51.9589107,85.5493777 51.9172598,85.5692921 L51.9172598,85.5692921 C51.2504151,85.8881275 50.4518453,85.7063431 49.9887125,85.1302824 C48.2643661,82.9854637 47.1981273,81.4942506 46.7900044,80.6566366 C45.6393274,78.295036 45.6299154,75.5753723 45.6299154,74.3835264 C45.6299154,73.1520627 45.8724747,71.0373495 47.0895449,68.3464107 C47.4602506,67.5267816 48.4283543,66.0465408 49.993856,63.9056885 L49.993861,63.9056922 C50.5321383,63.1695881 51.4460019,62.8089989 52.3418916,62.9792141 Z" id="Rectangle" fill="#000000" transform="translate(49.390966, 74.331410) rotate(-312.000000) translate(-49.390966, -74.331410) "></path>
                <path d="M75.1989009,37.7374925 L76.1134875,37.8905235 C76.4236809,37.9424259 76.6330672,38.2359625 76.5811648,38.546156 C76.5665554,38.6334692 76.5317906,38.7161739 76.4796309,38.7877029 C75.5464326,40.0674525 74.9603244,40.9499952 74.7213108,41.4353343 C74.2970416,42.2968519 73.9503271,43.7148721 73.9758885,44.3041817 C74.0014498,44.8934912 74.1163803,45.7986237 74.4299903,46.7792359 C74.5781666,47.242561 75.1353042,48.1363539 76.1014033,49.4606145 L76.1013797,49.4606318 C76.2986302,49.7310088 76.2393493,50.1100959 75.9689723,50.3073464 C75.9311128,50.3349663 75.8901772,50.3581013 75.8469863,50.3762877 L75.8469863,50.3762877 C75.4185471,50.5566899 74.9229294,50.44768 74.6097265,50.1041555 C73.5433159,48.934504 72.8831049,48.1201233 72.6290937,47.6610134 C71.9069227,46.3557329 71.9010157,44.8525473 71.9010157,44.1938021 C71.9010157,43.5131596 72.0532471,42.3443363 72.8170869,40.8570273 C73.0910698,40.3235419 73.8850078,39.283697 75.1989009,37.7374925 Z" id="Rectangle" fill="#000000" transform="translate(74.245039, 44.099930) rotate(-316.000000) translate(-74.245039, -44.099930) "></path>
                <path d="M51.5102818,29.0213507 L51.5102818,29.0213507 C51.6871917,29.0558797 51.8026142,29.2272848 51.7680852,29.4041947 C51.7604165,29.4434855 51.7455846,29.4810302 51.7243302,29.514954 C51.2309782,30.3022986 50.9219988,30.8436038 50.7973532,31.1388451 C50.5800865,31.653473 50.4025352,32.5005281 50.4156251,32.8525524 C50.428715,33.2045768 50.4875704,33.7452581 50.648169,34.3310273 C50.724935,34.6110246 51.0160453,35.1541988 51.5214999,35.9605498 L51.5215041,35.9605471 C51.6280987,36.1305973 51.5766578,36.3548621 51.4066076,36.4614566 C51.3959964,36.4681081 51.3850484,36.4742067 51.3738075,36.4797279 L51.3738075,36.4797279 C51.1606567,36.5844208 50.9033101,36.5255128 50.7569274,36.3385208 C50.2009966,35.6283831 49.8573359,35.134793 49.7259363,34.8577575 C49.3561152,34.0780476 49.3530902,33.1801189 49.3530902,32.7866171 C49.3530902,32.380035 49.4310474,31.6818379 49.822207,30.7933931 C49.9417283,30.521923 50.2544724,30.0309558 50.7604391,29.3204914 L50.7604459,29.3204962 C50.9300663,29.0823199 51.2232949,28.965337 51.5102818,29.0213507 Z" id="Rectangle" fill="#FFFFFF" transform="translate(50.563641, 32.769362) rotate(-316.000000) translate(-50.563641, -32.769362) "></path>
            </g>
        </g>
    </g>
</svg>